<svg xmlns="http://www.w3.org/2000/svg"
     viewBox="0 0 64 64"
     fill="none"
     stroke="#D89B2B"
     stroke-width="1.8"
     stroke-linecap="round"
     stroke-linejoin="round">

    <!-- Phone Handset -->
    <path d="
        M20 16
        C18 18 17 22 18 27
        C20 37 27 44 37 46
        C42 47 46 46 48 44

        L52 40
        C53 39 53 37.5 52 36.5

        L46 31
        C45 30 43.5 30 42.5 31

        L39 34
        C34 32 30 28 28 23

        L31 20
        C32 19 32 17.5 31 16.5

        L26 10
        C25 9 23.5 9 22.5 10

        Z"/>

</svg>