<svg xmlns="http://www.w3.org/2000/svg"
     viewBox="0 0 64 64"
     fill="none"
     stroke="#D89B2B"
     stroke-width="1.8"
     stroke-linecap="round"
     stroke-linejoin="round">

    <!-- Outer Circle -->
    <circle cx="32" cy="32" r="24"/>

    <!-- Twitter Bird -->
    <path d="M43 25.5
             C41.5 26.2 40 26.5 38.5 26.5
             C37 24.8 34.5 24 32.5 25
             C30.5 26 30 28 30.5 29.5
             C25.5 29.3 21.5 26.8 19 23.5
             C18.2 25 18.5 27 20 28.5
             C18.8 28.5 17.7 28.2 17 27.7
             C17 30 18.5 32 20.5 32.8
             C19.5 33 18.5 33 17.5 32.7
             C18.2 35 20 36.2 22.2 36.5
             C20.5 38 18.5 38.8 16.5 38.5
             C19 40.5 22 41.5 25 41.5
             C33 41.5 38.5 35.5 38.5 29.5
             C40 28.5 41.8 27 43 25.5Z"/>

</svg>